<svg xmlns="http://www.w3.org/2000/svg" width="14.554" height="14.855"><path d="M.005 7.437c-.064 3.099 2.07 6.056 5.006 7.02 2.766.93 6.166.235 8.007-2.134 1.343-1.66 1.649-3.872 1.503-5.939-2.368-.021-4.737-.014-7.102-.01-.004.843 0 1.684.004 2.528 1.418.039 2.836.02 4.255.05-.358 1.226-1.174 2.368-2.412 2.811-2.39 1.053-5.438-.323-6.19-2.83-.908-2.4.578-5.297 3.031-5.996 1.521-.535 3.088.068 4.39.859a33.587 33.587 0 0 0 1.883-1.943C10.9.615 9-.143 7.047.023 3.214.07-.141 3.608.005 7.437Z" fill="#dc4e41" fill-rule="evenodd" data-name="Path 21"/></svg>